<svg width="177" height="135" viewBox="0 0 177 135" fill="none" xmlns="http://www.w3.org/2000/svg">
<path d="M68.3714 10.8702L1.99571 115.655C-4.24681 125.509 5.15461 137.783 16.3852 134.438L74.8283 116.298C83.527 113.598 92.8512 113.598 101.55 116.298L159.993 134.438C171.224 137.783 180.625 125.509 174.383 115.655L108.007 10.8702C98.8268 -3.62338 77.5537 -3.62338 68.3714 10.8702Z" fill="#019CE3"/>
<path d="M101.55 116.298L159.993 134.438C171.224 137.783 180.625 125.509 174.382 115.654L168.601 106.529C162.367 96.6897 150.204 92.3071 139.069 95.8878L78.8516 115.251C86.3598 113.661 94.1785 114.01 101.55 116.298Z" fill="#005278"/>
</svg>
