<svg width="23" height="21" viewBox="0 0 23 21" fill="none" xmlns="http://www.w3.org/2000/svg">
<path d="M3.046 6.723C2.11046 7.82718 1.41382 9.1132 1 10.5C2.292 14.838 6.31 18 11.066 18C12.059 18 13.019 17.862 13.929 17.605M5.294 4.728C7.00665 3.59786 9.01408 2.99688 11.066 3C15.822 3 19.839 6.162 21.131 10.498C20.423 12.8673 18.903 14.9116 16.838 16.272M5.294 4.728L2.066 1.5M5.294 4.728L8.944 8.378M16.838 16.272L20.066 19.5M16.838 16.272L13.188 12.622C13.4666 12.3434 13.6876 12.0127 13.8384 11.6486C13.9892 11.2846 14.0668 10.8945 14.0668 10.5005C14.0668 10.1065 13.9892 9.71636 13.8384 9.35235C13.6876 8.98834 13.4666 8.6576 13.188 8.379C12.9094 8.1004 12.5787 7.8794 12.2146 7.72863C11.8506 7.57785 11.4605 7.50025 11.0665 7.50025C10.6725 7.50025 10.2824 7.57785 9.91835 7.72863C9.55434 7.8794 9.2236 8.1004 8.945 8.379M13.187 12.621L8.946 8.38" stroke="#797E88" stroke-width="2" stroke-linecap="round" stroke-linejoin="round"/>
</svg>
