<svg width="20" height="20" viewBox="0 0 20 20" fill="none" xmlns="http://www.w3.org/2000/svg">
<rect x="2" y="2" width="16" height="16" rx="8" fill="#FF3030"/>
<path fill-rule="evenodd" clip-rule="evenodd" d="M6.70056 6.69983C6.92837 6.47202 7.29772 6.47202 7.52552 6.69983L13.3002 12.4745C13.528 12.7023 13.528 13.0717 13.3002 13.2995C13.0724 13.5273 12.7031 13.5273 12.4753 13.2995L6.70056 7.52478C6.47276 7.29698 6.47276 6.92763 6.70056 6.69983Z" fill="white"/>
<path fill-rule="evenodd" clip-rule="evenodd" d="M6.70056 13.3002C6.47276 13.0724 6.47276 12.703 6.70056 12.4752L12.4753 6.70051C12.7031 6.4727 13.0724 6.4727 13.3002 6.70051C13.528 6.92832 13.528 7.29766 13.3002 7.52547L7.52552 13.3002C7.29772 13.528 6.92837 13.528 6.70056 13.3002Z" fill="white"/>
</svg>
