<svg width="24" height="25" viewBox="0 0 24 25" fill="none" xmlns="http://www.w3.org/2000/svg">
<rect y="0.5" width="24" height="24" rx="12" fill="#FF3030"/>
<path fill-rule="evenodd" clip-rule="evenodd" d="M8.22873 8.72879C8.48908 8.46844 8.91119 8.46844 9.17154 8.72879L15.7712 15.3285C16.0316 15.5888 16.0316 16.0109 15.7712 16.2713C15.5109 16.5316 15.0887 16.5316 14.8284 16.2713L8.22873 9.6716C7.96838 9.41125 7.96838 8.98914 8.22873 8.72879Z" fill="white"/>
<path fill-rule="evenodd" clip-rule="evenodd" d="M8.22873 16.2712C7.96838 16.0109 7.96838 15.5887 8.22873 15.3284L14.8284 8.72874C15.0887 8.46839 15.5109 8.46839 15.7712 8.72874C16.0316 8.98909 16.0316 9.4112 15.7712 9.67155L9.17154 16.2712C8.91119 16.5316 8.48908 16.5316 8.22873 16.2712Z" fill="white"/>
</svg>
